<svg xmlns="http://www.w3.org/2000/svg" width="256" height="256" viewBox="0 0 256 256"><circle cx="128" cy="133.2" r="108.1" fill="#673200"/><circle cx="128" cy="172.7" r="42.3" fill="#c65b00"/><path fill="#c65b00" d="M174 35.4a65.6 65.6 0 0 0 41.9 116.1 63.6 63.6 0 0 0 19.1-2.9 110.5 110.5 0 0 0 1.1-15.4A108 108 0 0 0 174 35.4zM19.9 133.2a110.5 110.5 0 0 0 1.1 15.4 63.6 63.6 0 0 0 19.1 2.9A65.6 65.6 0 0 0 82 35.4a108 108 0 0 0-62.1 97.8z"/><path fill="none" stroke="#000" stroke-linecap="round" stroke-linejoin="round" stroke-width="3" d="M101.2 187.1a37.2 37.2 0 0 0 52.7 0"/></svg>